<svg xmlns="http://www.w3.org/2000/svg" width="1024" height="600" viewBox="0 0 1024 600">
<title>Deck status layout with right-side JUMP panel</title>
<rect width="1024" height="600" fill="#08080c"/>
<rect x="3" y="10" width="198" height="34" rx="2" fill="#202028"/><text x="102.0" y="31.0" text-anchor="middle" fill="#eee" font-family="sans-serif" font-size="12">PLAY</text>
<rect x="208" y="10" width="198" height="34" rx="2" fill="#202028"/><text x="307.0" y="31.0" text-anchor="middle" fill="#eee" font-family="sans-serif" font-size="12">BROWSE</text>
<rect x="413" y="10" width="198" height="34" rx="2" fill="#202028"/><text x="512.0" y="31.0" text-anchor="middle" fill="#eee" font-family="sans-serif" font-size="12">SAMPLER</text>
<rect x="618" y="10" width="198" height="34" rx="2" fill="#202028"/><text x="717.0" y="31.0" text-anchor="middle" fill="#eee" font-family="sans-serif" font-size="12">LEVELS</text>
<rect x="823" y="10" width="198" height="34" rx="2" fill="#202028"/><text x="922.0" y="31.0" text-anchor="middle" fill="#eee" font-family="sans-serif" font-size="12">SETTINGS</text>
<rect x="6" y="73" width="110" height="26" rx="2" fill="#202028"/><text x="61.0" y="90.0" text-anchor="middle" fill="#eee" font-family="sans-serif" font-size="12">D1    USB1</text>
<rect x="6" y="107" width="56" height="28" rx="2" fill="#202028"/><text x="34.0" y="125.0" text-anchor="middle" fill="#eee" font-family="sans-serif" font-size="12">8A</text>
<rect x="62" y="107" width="54" height="28" rx="2" fill="#202028"/><text x="89.0" y="125.0" text-anchor="middle" fill="#eee" font-family="sans-serif" font-size="12">↻ 4</text>
<rect x="6" y="143" width="53" height="44" rx="2" fill="#202028"/><text x="32.5" y="169.0" text-anchor="middle" fill="#eee" font-family="sans-serif" font-size="12">QNT</text>
<rect x="63" y="143" width="53" height="44" rx="2" fill="#202028"/><text x="89.5" y="169.0" text-anchor="middle" fill="#eee" font-family="sans-serif" font-size="12">LOCK</text>
<rect x="6" y="195" width="53" height="44" rx="2" fill="#202028"/><text x="32.5" y="221.0" text-anchor="middle" fill="#eee" font-family="sans-serif" font-size="12">▶</text>
<rect x="63" y="195" width="53" height="44" rx="2" fill="#202028"/><text x="89.5" y="221.0" text-anchor="middle" fill="#eee" font-family="sans-serif" font-size="12">CUE</text>
<rect x="126" y="60" width="714" height="193" rx="2" fill="#101018"/><text x="483.0" y="160.5" text-anchor="middle" fill="#eee" font-family="sans-serif" font-size="12">SCROLLING WAVEFORM</text>
<rect x="0" y="447" width="510" height="28" rx="2" fill="#202028"/><text x="255.0" y="465.0" text-anchor="middle" fill="#eee" font-family="sans-serif" font-size="12">8A    Track title · Artist</text>
<rect x="483" y="452" width="26" height="16" rx="2" fill="#c62828"/><text x="496.0" y="463.0" text-anchor="middle" fill="#eee" font-family="sans-serif" font-size="9">ON</text>
<rect x="0" y="479" width="510" height="121" rx="2" fill="#202028"/><text x="255.0" y="543.5" text-anchor="middle" fill="#eee" font-family="sans-serif" font-size="12">Deck time / pitch / BPM / track overview</text>
<rect x="6" y="266" width="110" height="26" rx="2" fill="#202028"/><text x="61.0" y="283.0" text-anchor="middle" fill="#eee" font-family="sans-serif" font-size="12">D2    USB2</text>
<rect x="6" y="300" width="56" height="28" rx="2" fill="#202028"/><text x="34.0" y="318.0" text-anchor="middle" fill="#eee" font-family="sans-serif" font-size="12">8A</text>
<rect x="62" y="300" width="54" height="28" rx="2" fill="#202028"/><text x="89.0" y="318.0" text-anchor="middle" fill="#eee" font-family="sans-serif" font-size="12">↻ 4</text>
<rect x="6" y="336" width="53" height="44" rx="2" fill="#202028"/><text x="32.5" y="362.0" text-anchor="middle" fill="#eee" font-family="sans-serif" font-size="12">QNT</text>
<rect x="63" y="336" width="53" height="44" rx="2" fill="#202028"/><text x="89.5" y="362.0" text-anchor="middle" fill="#eee" font-family="sans-serif" font-size="12">LOCK</text>
<rect x="6" y="388" width="53" height="44" rx="2" fill="#202028"/><text x="32.5" y="414.0" text-anchor="middle" fill="#eee" font-family="sans-serif" font-size="12">▶</text>
<rect x="63" y="388" width="53" height="44" rx="2" fill="#202028"/><text x="89.5" y="414.0" text-anchor="middle" fill="#eee" font-family="sans-serif" font-size="12">CUE</text>
<rect x="126" y="253" width="714" height="193" rx="2" fill="#101018"/><text x="483.0" y="353.5" text-anchor="middle" fill="#eee" font-family="sans-serif" font-size="12">SCROLLING WAVEFORM</text>
<rect x="512" y="447" width="510" height="28" rx="2" fill="#202028"/><text x="767.0" y="465.0" text-anchor="middle" fill="#eee" font-family="sans-serif" font-size="12">8A    Track title · Artist</text>
<rect x="995" y="452" width="26" height="16" rx="2" fill="#303038"/><text x="1008.0" y="463.0" text-anchor="middle" fill="#eee" font-family="sans-serif" font-size="9">ON</text>
<rect x="512" y="479" width="510" height="121" rx="2" fill="#202028"/><text x="767.0" y="543.5" text-anchor="middle" fill="#eee" font-family="sans-serif" font-size="12">Deck time / pitch / BPM / track overview</text>
<rect x="852" y="68" width="52" height="44" rx="2" fill="#202028"/><text x="878.0" y="94.0" text-anchor="middle" fill="#eee" font-family="sans-serif" font-size="12">FX</text>
<rect x="908" y="68" width="52" height="44" rx="2" fill="#202028"/><text x="934.0" y="94.0" text-anchor="middle" fill="#eee" font-family="sans-serif" font-size="12">KEY</text>
<rect x="964" y="68" width="52" height="44" rx="2" fill="#8054a0"/><text x="990.0" y="94.0" text-anchor="middle" fill="#eee" font-family="sans-serif" font-size="12">JUMP</text>
<rect x="852" y="120" width="164" height="28" rx="2" fill="#202028"/><text x="934.0" y="138.0" text-anchor="middle" fill="#eee" font-family="sans-serif" font-size="12">DECK 1    4 BEATS</text>
<rect x="852" y="156" width="78" height="44" rx="2" fill="#202028"/><text x="891.0" y="182.0" text-anchor="middle" fill="#eee" font-family="sans-serif" font-size="12">÷2</text>
<rect x="938" y="156" width="78" height="44" rx="2" fill="#202028"/><text x="977.0" y="182.0" text-anchor="middle" fill="#eee" font-family="sans-serif" font-size="12">×2</text>
<rect x="852" y="208" width="78" height="44" rx="2" fill="#202028"/><text x="891.0" y="234.0" text-anchor="middle" fill="#eee" font-family="sans-serif" font-size="12">‹ BACK</text>
<rect x="938" y="208" width="78" height="44" rx="2" fill="#202028"/><text x="977.0" y="234.0" text-anchor="middle" fill="#eee" font-family="sans-serif" font-size="12">FWD ›</text>
<rect x="852" y="268" width="164" height="28" rx="2" fill="#202028"/><text x="934.0" y="286.0" text-anchor="middle" fill="#eee" font-family="sans-serif" font-size="12">DECK 2    4 BEATS</text>
<rect x="852" y="304" width="78" height="44" rx="2" fill="#202028"/><text x="891.0" y="330.0" text-anchor="middle" fill="#eee" font-family="sans-serif" font-size="12">÷2</text>
<rect x="938" y="304" width="78" height="44" rx="2" fill="#202028"/><text x="977.0" y="330.0" text-anchor="middle" fill="#eee" font-family="sans-serif" font-size="12">×2</text>
<rect x="852" y="356" width="78" height="44" rx="2" fill="#202028"/><text x="891.0" y="382.0" text-anchor="middle" fill="#eee" font-family="sans-serif" font-size="12">‹ BACK</text>
<rect x="938" y="356" width="78" height="44" rx="2" fill="#202028"/><text x="977.0" y="382.0" text-anchor="middle" fill="#eee" font-family="sans-serif" font-size="12">FWD ›</text>
</svg>
