<svg xmlns="http://www.w3.org/2000/svg" width="1024" height="600" viewBox="0 0 1024 600"><rect width="1024" height="600" fill="#08080c"/>
<rect x="0" y="5" width="200" height="45" rx="3" fill="#202028"/><text x="100.0" y="32.5" text-anchor="middle" fill="#eeeeee" font-family="sans-serif" font-size="14">PLAY</text>
<rect x="205" y="5" width="200" height="45" rx="3" fill="#202028"/><text x="305.0" y="32.5" text-anchor="middle" fill="#eeeeee" font-family="sans-serif" font-size="14">BROWSE</text>
<rect x="410" y="5" width="200" height="45" rx="3" fill="#202028"/><text x="510.0" y="32.5" text-anchor="middle" fill="#eeeeee" font-family="sans-serif" font-size="14">SAMPLER</text>
<rect x="615" y="5" width="200" height="45" rx="3" fill="#202028"/><text x="715.0" y="32.5" text-anchor="middle" fill="#eeeeee" font-family="sans-serif" font-size="14">LEVELS</text>
<rect x="820" y="5" width="200" height="45" rx="3" fill="#202028"/><text x="920.0" y="32.5" text-anchor="middle" fill="#eeeeee" font-family="sans-serif" font-size="14">SETTINGS</text>
<rect x="0" y="60" width="144" height="26" rx="3" fill="#202028"/><text x="72.0" y="78.0" text-anchor="middle" fill="#eeeeee" font-family="sans-serif" font-size="14">D1     USB1</text>
<rect x="0" y="86" width="70" height="24" rx="3" fill="#202028"/><text x="35.0" y="103.0" text-anchor="middle" fill="#eeeeee" font-family="sans-serif" font-size="14">KEY  8A</text>
<rect x="74" y="86" width="70" height="24" rx="3" fill="#202028"/><text x="109.0" y="103.0" text-anchor="middle" fill="#eeeeee" font-family="sans-serif" font-size="14">LOOP  4</text>
<rect x="0" y="112" width="44" height="44" rx="3" fill="#202028"/><text x="22.0" y="139.0" text-anchor="middle" fill="#eeeeee" font-family="sans-serif" font-size="14">‹</text>
<rect x="46" y="112" width="52" height="44" rx="3" fill="#202028"/><text x="72.0" y="139.0" text-anchor="middle" fill="#eeeeee" font-family="sans-serif" font-size="14">JUMP 4</text>
<rect x="100" y="112" width="44" height="44" rx="3" fill="#202028"/><text x="122.0" y="139.0" text-anchor="middle" fill="#eeeeee" font-family="sans-serif" font-size="14">›</text>
<rect x="0" y="158" width="70" height="44" rx="3" fill="#623080"/><text x="35.0" y="185.0" text-anchor="middle" fill="#eeeeee" font-family="sans-serif" font-size="14">QNT</text>
<rect x="74" y="158" width="70" height="44" rx="3" fill="#202028"/><text x="109.0" y="185.0" text-anchor="middle" fill="#eeeeee" font-family="sans-serif" font-size="14">LOCK</text>
<rect x="0" y="204" width="70" height="44" rx="3" fill="#202028"/><text x="35.0" y="231.0" text-anchor="middle" fill="#eeeeee" font-family="sans-serif" font-size="14">PLAY</text>
<rect x="74" y="204" width="70" height="44" rx="3" fill="#202028"/><text x="109.0" y="231.0" text-anchor="middle" fill="#eeeeee" font-family="sans-serif" font-size="14">CUE</text>
<rect x="154" y="60" width="690" height="188" rx="3" fill="#101018"/><text x="499.0" y="159.0" text-anchor="middle" fill="#eeeeee" font-family="sans-serif" font-size="14">SCROLLING WAVEFORM</text>
<rect x="0" y="447" width="508" height="28" rx="3" fill="#202028"/><text x="254.0" y="466.0" text-anchor="middle" fill="#eeeeee" font-family="sans-serif" font-size="14">8A   CUE   Track title                       ON AIR</text>
<rect x="0" y="479" width="508" height="121" rx="3" fill="#202028"/><text x="254.0" y="544.5" text-anchor="middle" fill="#eeeeee" font-family="sans-serif" font-size="14">Deck time / pitch / BPM / track overview</text>
<rect x="0" y="253" width="144" height="26" rx="3" fill="#202028"/><text x="72.0" y="271.0" text-anchor="middle" fill="#eeeeee" font-family="sans-serif" font-size="14">D2     USB2</text>
<rect x="0" y="279" width="70" height="24" rx="3" fill="#202028"/><text x="35.0" y="296.0" text-anchor="middle" fill="#eeeeee" font-family="sans-serif" font-size="14">KEY  8A</text>
<rect x="74" y="279" width="70" height="24" rx="3" fill="#202028"/><text x="109.0" y="296.0" text-anchor="middle" fill="#eeeeee" font-family="sans-serif" font-size="14">LOOP  4</text>
<rect x="0" y="305" width="44" height="44" rx="3" fill="#202028"/><text x="22.0" y="332.0" text-anchor="middle" fill="#eeeeee" font-family="sans-serif" font-size="14">‹</text>
<rect x="46" y="305" width="52" height="44" rx="3" fill="#202028"/><text x="72.0" y="332.0" text-anchor="middle" fill="#eeeeee" font-family="sans-serif" font-size="14">JUMP 4</text>
<rect x="100" y="305" width="44" height="44" rx="3" fill="#202028"/><text x="122.0" y="332.0" text-anchor="middle" fill="#eeeeee" font-family="sans-serif" font-size="14">›</text>
<rect x="0" y="351" width="70" height="44" rx="3" fill="#623080"/><text x="35.0" y="378.0" text-anchor="middle" fill="#eeeeee" font-family="sans-serif" font-size="14">QNT</text>
<rect x="74" y="351" width="70" height="44" rx="3" fill="#202028"/><text x="109.0" y="378.0" text-anchor="middle" fill="#eeeeee" font-family="sans-serif" font-size="14">LOCK</text>
<rect x="0" y="397" width="70" height="44" rx="3" fill="#202028"/><text x="35.0" y="424.0" text-anchor="middle" fill="#eeeeee" font-family="sans-serif" font-size="14">PLAY</text>
<rect x="74" y="397" width="70" height="44" rx="3" fill="#202028"/><text x="109.0" y="424.0" text-anchor="middle" fill="#eeeeee" font-family="sans-serif" font-size="14">CUE</text>
<rect x="154" y="253" width="690" height="188" rx="3" fill="#101018"/><text x="499.0" y="352.0" text-anchor="middle" fill="#eeeeee" font-family="sans-serif" font-size="14">SCROLLING WAVEFORM</text>
<rect x="512" y="447" width="508" height="28" rx="3" fill="#202028"/><text x="766.0" y="466.0" text-anchor="middle" fill="#eeeeee" font-family="sans-serif" font-size="14">8A   CUE   Track title                       ON AIR</text>
<rect x="512" y="479" width="508" height="121" rx="3" fill="#202028"/><text x="766.0" y="544.5" text-anchor="middle" fill="#eeeeee" font-family="sans-serif" font-size="14">Deck time / pitch / BPM / track overview</text>
<rect x="852" y="60" width="164" height="385" rx="3" fill="#202028"/><text x="934.0" y="257.5" text-anchor="middle" fill="#eeeeee" font-family="sans-serif" font-size="14">FX / KEY</text>
</svg>